<svg width="92" height="92" viewBox="0 0 92 92" fill="none" xmlns="http://www.w3.org/2000/svg">
<path d="M21.4079 10.649C39.0846 10.649 51.2235 1.49243 59.7412 1.49243C68.2589 1.49243 86.1478 6.38888 86.1478 45.5732C86.1478 84.7575 62.0821 90.5075 52.7134 90.5075C8.84219 90.5101 -9.8977 10.649 21.4079 10.649Z" fill="#F5F3F7"/>
<path d="M77.9444 15.3334C75.831 15.3334 74.1111 13.6135 74.1111 11.5001C74.1111 9.38664 75.831 7.66675 77.9444 7.66675C80.0579 7.66675 81.7778 9.38664 81.7778 11.5001C81.7778 13.6135 80.0579 15.3334 77.9444 15.3334ZM77.9444 10.2223C77.2391 10.2223 76.6666 10.7973 76.6666 11.5001C76.6666 12.2029 77.2391 12.7779 77.9444 12.7779C78.6498 12.7779 79.2222 12.2029 79.2222 11.5001C79.2222 10.7973 78.6498 10.2223 77.9444 10.2223Z" fill="#ABA7AF"/>
<path d="M67 11.9998C65.346 11.9998 64 10.6538 64 8.99976C64 7.34576 65.346 5.99976 67 5.99976C68.654 5.99976 70 7.34576 70 8.99976C70 10.6538 68.654 11.9998 67 11.9998ZM67 7.99976C66.448 7.99976 66 8.44976 66 8.99976C66 9.54976 66.448 9.99976 67 9.99976C67.552 9.99976 68 9.54976 68 8.99976C68 8.44976 67.552 7.99976 67 7.99976Z" fill="#ABA7AF"/>
<path d="M81 22.9998C79.8973 22.9998 79 22.1024 79 20.9998C79 19.8971 79.8973 18.9998 81 18.9998C82.1027 18.9998 83 19.8971 83 20.9998C83 22.1024 82.1027 22.9998 81 22.9998ZM81 20.3331C80.632 20.3331 80.3333 20.6331 80.3333 20.9998C80.3333 21.3664 80.632 21.6664 81 21.6664C81.368 21.6664 81.6667 21.3664 81.6667 20.9998C81.6667 20.6331 81.368 20.3331 81 20.3331Z" fill="#ABA7AF"/>
<path d="M69.6389 72.1945H22.3611C19.5372 72.1945 17.25 69.9072 17.25 67.0834V28.75H74.75V67.0834C74.75 69.9072 72.4628 72.1945 69.6389 72.1945Z" fill="#F5F3F7"/>
<path d="M74.75 28.7499H17.25V24.9165C17.25 22.0926 19.5372 19.8054 22.3611 19.8054H69.6389C72.4628 19.8054 74.75 22.0926 74.75 24.9165V28.7499Z" fill="#00B998"/>
<path d="M28.1111 19.8054H22.3611C19.5372 19.8054 17.25 22.0926 17.25 24.9165V28.7499H23V24.9165C23 22.0926 25.2872 19.8054 28.1111 19.8054Z" fill="#04A386"/>
<path d="M46 66.4345C40.6001 66.4345 35.2028 64.3798 31.0935 60.2705L29.739 58.916L32.4505 56.2046L33.8049 57.559C40.5311 64.2827 51.474 64.2827 58.2002 57.559L59.5547 56.2046L62.2661 58.916L60.9117 60.2705C56.7972 64.3798 51.3999 66.4345 46 66.4345Z" fill="#1A141F"/>
<path d="M69.6388 74.1109H22.361C18.4843 74.1109 15.3333 70.9599 15.3333 67.0831V24.9164C15.3333 21.0397 18.4843 17.8887 22.361 17.8887H69.6388C73.5156 17.8887 76.6666 21.0397 76.6666 24.9164V67.0831C76.6666 70.9599 73.5156 74.1109 69.6388 74.1109ZM22.361 21.722C20.6003 21.722 19.1666 23.1557 19.1666 24.9164V67.0831C19.1666 68.8439 20.6003 70.2776 22.361 70.2776H69.6388C71.3996 70.2776 72.8332 68.8439 72.8332 67.0831V24.9164C72.8332 23.1557 71.3996 21.722 69.6388 21.722H22.361Z" fill="#1A141F"/>
<path d="M17.25 26.8335H74.75V30.6668H17.25V26.8335Z" fill="#1A141F"/>
<path d="M5.11108 70.2778H86.8889V74.1112H5.11108V70.2778Z" fill="#1A141F"/>
<path d="M33.2222 48.5557C30.4034 48.5557 28.1111 46.2634 28.1111 43.4446C28.1111 40.6258 30.4034 38.3335 33.2222 38.3335C36.041 38.3335 38.3333 40.6258 38.3333 43.4446C38.3333 46.2634 36.041 48.5557 33.2222 48.5557ZM33.2222 42.1668C32.5169 42.1668 31.9444 42.7418 31.9444 43.4446C31.9444 44.1474 32.5169 44.7224 33.2222 44.7224C33.9275 44.7224 34.5 44.1474 34.5 43.4446C34.5 42.7418 33.9275 42.1668 33.2222 42.1668Z" fill="#1A141F"/>
<path d="M58.7776 48.5557C55.9588 48.5557 53.6665 46.2634 53.6665 43.4446C53.6665 40.6258 55.9588 38.3335 58.7776 38.3335C61.5964 38.3335 63.8887 40.6258 63.8887 43.4446C63.8887 46.2634 61.5964 48.5557 58.7776 48.5557ZM58.7776 42.1668C58.0723 42.1668 57.4998 42.7418 57.4998 43.4446C57.4998 44.1474 58.0723 44.7224 58.7776 44.7224C59.483 44.7224 60.0554 44.1474 60.0554 43.4446C60.0554 42.7418 59.483 42.1668 58.7776 42.1668Z" fill="#1A141F"/>
<path d="M33 44.9998C34.1046 44.9998 35 44.1043 35 42.9998C35 41.8952 34.1046 40.9998 33 40.9998C31.8954 40.9998 31 41.8952 31 42.9998C31 44.1043 31.8954 44.9998 33 44.9998Z" fill="#00B998"/>
<path d="M59 44.9998C60.1046 44.9998 61 44.1043 61 42.9998C61 41.8952 60.1046 40.9998 59 40.9998C57.8954 40.9998 57 41.8952 57 42.9998C57 44.1043 57.8954 44.9998 59 44.9998Z" fill="#00B998"/>
</svg>
