<svg width="220" height="110" viewBox="0 0 220 110" fill="none" xmlns="http://www.w3.org/2000/svg">
<path d="M153.199 61.0184C143.534 46.2192 144.561 31.0494 139.903 23.9169C135.244 16.7843 121.359 4.48697 88.5538 25.9153C55.7481 47.3436 64.092 70.6375 69.2184 78.4805C93.21 115.209 170.319 87.2282 153.199 61.0184Z" fill="#3EA7DC"/>
<path d="M88.9167 45.4165V78.6387C88.9167 81.4498 91.2167 83.7498 94.0279 83.7498H125.972C128.783 83.7498 131.083 81.4498 131.083 78.6387V45.4165H88.9167Z" fill="#F5F3F7"/>
<path d="M136.194 45.4165H83.8055V39.0276C83.8055 36.2037 86.0928 33.9165 88.9167 33.9165H131.083C133.907 33.9165 136.194 36.2037 136.194 39.0276V45.4165Z" fill="#D51A52"/>
<path d="M94.6667 33.9165H88.9167C86.0928 33.9165 83.8055 36.2037 83.8055 39.0276V45.4165H89.5555V39.0276C89.5555 36.2037 91.8428 33.9165 94.6667 33.9165Z" fill="#C61349"/>
<path d="M74.3153 21.2129L76.1224 19.4058L79.7365 23.0199L77.9294 24.827L74.3153 21.2129Z" fill="#ABA7AF"/>
<path d="M73.8635 33.4053L77.4776 29.7912L79.2847 31.5982L75.6706 35.2123L73.8635 33.4053Z" fill="#ABA7AF"/>
<path d="M84.2526 23.0181L87.8667 19.404L89.6737 21.211L86.0596 24.8251L84.2526 23.0181Z" fill="#ABA7AF"/>
<path d="M134.917 24.7038C132.803 24.7038 131.083 22.9839 131.083 20.8704C131.083 18.757 132.803 17.0371 134.917 17.0371C137.03 17.0371 138.75 18.757 138.75 20.8704C138.75 22.9839 137.03 24.7038 134.917 24.7038ZM134.917 19.5927C134.211 19.5927 133.639 20.1651 133.639 20.8704C133.639 21.5758 134.211 22.1482 134.917 22.1482C135.622 22.1482 136.194 21.5758 136.194 20.8704C136.194 20.1651 135.622 19.5927 134.917 19.5927Z" fill="#ABA7AF"/>
<path d="M125.972 85.6665H94.0278C90.151 85.6665 87 82.5155 87 78.6387V45.4165H90.8333V78.6387C90.8333 80.3995 92.267 81.8332 94.0278 81.8332H125.972C127.733 81.8332 129.167 80.3995 129.167 78.6387V45.4165H133V78.6387C133 82.5155 129.849 85.6665 125.972 85.6665Z" fill="#1A141F"/>
<path d="M136.194 47.3333H124.056V43.5H134.278V39.0278C134.278 37.267 132.844 35.8333 131.083 35.8333H88.9167C87.1559 35.8333 85.7222 37.267 85.7222 39.0278V43.5H124.056V47.3333H83.8056C82.7476 47.3333 81.8889 46.4747 81.8889 45.4167V39.0278C81.8889 35.151 85.0399 32 88.9167 32H131.083C134.96 32 138.111 35.151 138.111 39.0278V45.4167C138.111 46.4747 137.252 47.3333 136.194 47.3333Z" fill="#1A141F"/>
<path d="M122.778 33.9166H118.944V28.8055C118.944 28.4528 118.658 28.1666 118.306 28.1666H101.694C101.342 28.1666 101.056 28.4528 101.056 28.8055V33.9166H97.2222V28.8055C97.2222 26.3394 99.2283 24.3333 101.694 24.3333H118.306C120.772 24.3333 122.778 26.3394 122.778 28.8055V33.9166Z" fill="#1A141F"/>
<path d="M108.083 56.9165H111.917V73.5276H108.083V56.9165Z" fill="#1A141F"/>
<path d="M97.2222 56.9165H101.056V73.5276H97.2222V56.9165Z" fill="#1A141F"/>
<path d="M118.944 56.9165H122.778V73.5276H118.944V56.9165Z" fill="#1A141F"/>
<path d="M69.1111 81.8333H150.889V85.6666H69.1111V81.8333Z" fill="#1A141F"/>
</svg>
