<svg width="171" height="19" viewBox="0 0 171 19" fill="none" xmlns="http://www.w3.org/2000/svg">
<g clip-path="url(#clip0_272_3319)">
<path d="M0.135634 13.0455L2.0557 2.59041C2.15742 2.14268 2.39478 1.75949 2.78049 1.44084C3.16196 1.12622 3.59005 0.964874 4.06477 0.964874C4.53949 0.964874 4.904 1.12218 5.16679 1.44084C5.37024 1.68285 5.47197 1.9652 5.48468 2.28789C5.48468 2.3847 5.4762 2.48554 5.45925 2.59041L3.53495 12.9083C3.48409 13.223 3.45442 13.5093 3.44594 13.7756C3.44594 13.9087 3.45442 14.0418 3.47561 14.1749C3.51376 14.554 3.64939 14.8808 3.87403 15.151C4.09868 15.4213 4.42928 15.631 4.86162 15.7762C5.29395 15.9214 5.86191 15.9981 6.56975 15.9981C7.29454 15.9981 7.90489 15.9255 8.39656 15.7762C8.88824 15.627 9.29938 15.4172 9.62998 15.1429C9.95635 14.8687 10.2107 14.5419 10.3844 14.1587C10.5625 13.7756 10.6896 13.348 10.7702 12.8801L12.6945 2.59848C12.7665 2.14672 12.9742 1.76352 13.326 1.44891C13.6736 1.13429 14.0593 0.972941 14.4789 0.972941C14.8985 0.972941 15.2291 1.12622 15.4707 1.42874C15.6614 1.65865 15.7547 1.9289 15.7547 2.24352C15.7547 2.33629 15.7462 2.4331 15.725 2.53394L13.8007 12.8156C13.7499 13.1382 13.7287 13.4367 13.7287 13.711C13.7287 13.8482 13.7329 13.9853 13.7414 14.1224C13.7795 14.5137 13.9152 14.8485 14.1398 15.1268C14.3644 15.4051 14.695 15.6189 15.1274 15.7722C15.5597 15.9255 16.1234 15.9981 16.8186 15.9981C17.5434 15.9981 18.1537 15.9255 18.6454 15.7762C19.137 15.627 19.5482 15.4172 19.8703 15.1429C20.1924 14.8687 20.4468 14.5419 20.6333 14.1587C20.8197 13.7756 20.9511 13.348 21.0317 12.8801L22.9517 2.59848C23.0365 2.14268 23.2696 1.75949 23.6511 1.44084C24.0326 1.12622 24.4607 0.964874 24.9354 0.964874C25.3974 0.964874 25.7704 1.12218 26.0544 1.44084C26.2663 1.69092 26.3765 1.97731 26.385 2.30403C26.385 2.40083 26.3765 2.49764 26.3553 2.59041L24.4056 13.0455C24.075 14.7517 23.2484 16.111 21.926 17.1234C20.6078 18.1359 18.7386 18.6401 16.3184 18.6401C15.1189 18.6401 14.1144 18.507 13.2963 18.2448C12.4825 17.9826 11.8425 17.6034 11.3847 17.1154C10.7362 17.6034 9.96483 17.9786 9.06202 18.2448C8.15921 18.507 7.10805 18.6401 5.9043 18.6401C3.5731 18.6401 1.94549 18.1318 1.02573 17.1154C0.343322 16.3692 0 15.4334 0 14.312C0 13.9087 0.046624 13.4851 0.135634 13.0455Z" fill="#3EA7DC"/>
<path d="M25.9949 17.0145L27.9108 6.5312C28.2414 4.84516 29.0679 3.49391 30.3818 2.48551C31.6958 1.47308 33.5607 0.968878 35.981 0.968878C38.3588 0.960811 40.0245 1.45291 40.9824 2.44921C41.7072 3.20349 42.0675 4.14735 42.0548 5.28482C42.0548 5.65188 42.0209 6.04313 41.9488 6.45456L39.9821 17.0064C39.9016 17.4582 39.6727 17.8414 39.2913 18.16C38.9098 18.4787 38.4859 18.636 38.0155 18.636C37.5535 18.636 37.1847 18.4787 36.905 18.16C36.7057 17.9301 36.5998 17.6639 36.5913 17.3533C36.5913 17.2404 36.6083 17.1234 36.6379 17.0064L37.617 11.6579H30.3776L29.3731 17.0145C29.2925 17.4663 29.0594 17.8494 28.6779 18.1641C28.2922 18.4787 27.8641 18.636 27.3894 18.636C26.9147 18.636 26.5375 18.4787 26.2535 18.16C26.05 17.9301 25.9525 17.6679 25.9525 17.3695C25.9483 17.2605 25.9653 17.1395 25.9949 17.0145ZM30.8735 9.00379H38.1045L38.5198 6.74498C38.5707 6.43036 38.5961 6.13591 38.5961 5.86969C38.5961 5.73658 38.5919 5.59944 38.5792 5.46633C38.5368 5.08314 38.4054 4.75238 38.1808 4.47407C37.9561 4.19575 37.6255 3.986 37.1932 3.84079C36.7608 3.69558 36.1929 3.62701 35.4893 3.62701C34.7645 3.62701 34.1584 3.69962 33.6625 3.84483C33.1708 3.99004 32.7597 4.19978 32.4333 4.4781C32.1069 4.75642 31.8568 5.08314 31.6788 5.4623C31.5008 5.84145 31.3737 6.26901 31.2931 6.74901L30.8735 9.00379Z" fill="#3EA7DC"/>
<path d="M43.4238 2.70737C43.4238 2.46939 43.4789 2.24351 43.5891 2.02973C43.6697 1.85628 43.8053 1.6788 44.0045 1.48923C44.1995 1.30368 44.475 1.15444 44.8268 1.04956C45.0387 0.993095 45.2167 0.96486 45.3693 0.96486C45.4795 0.96486 45.5813 0.980994 45.6703 1.00923C45.8822 1.0778 46.0517 1.18267 46.1831 1.32788C46.323 1.48116 46.4247 1.6788 46.4841 1.91679L48.1329 15.1026L54.478 1.97326C54.6009 1.73528 54.7704 1.52553 54.9908 1.35612C55.1731 1.20284 55.3977 1.0899 55.669 1.00923C55.7792 0.972927 55.9064 0.952759 56.0462 0.952759C56.237 0.952759 56.4531 0.985027 56.6947 1.0536C57.0084 1.1504 57.2245 1.29158 57.3432 1.47713C57.4661 1.66267 57.5467 1.84822 57.5848 2.02973C57.606 2.11443 57.6145 2.2072 57.6145 2.30401C57.6145 2.43712 57.5933 2.57426 57.5551 2.70737L50.1038 17.0427C49.9215 17.3574 49.7054 17.6276 49.4553 17.8495C49.2222 18.0431 48.9551 18.2206 48.6457 18.39C48.3363 18.5594 47.9676 18.64 47.5352 18.64C47.1029 18.64 46.7638 18.5594 46.518 18.4021C46.2721 18.2448 46.0729 18.0592 45.9246 17.8495C45.7635 17.6276 45.6533 17.3614 45.594 17.0427L43.4238 2.70737Z" fill="#3EA7DC"/>
<path d="M57.3476 13.1019L58.5556 6.5312C58.8862 4.84516 59.7127 3.49391 61.0351 2.48148C62.3533 1.46905 64.2225 0.964848 66.6427 0.964848C69.0206 0.956781 70.6863 1.45695 71.6442 2.47341C72.369 3.23979 72.725 4.20382 72.7166 5.36549C72.7166 5.74062 72.6827 6.13591 72.6106 6.55944L71.9028 10.3268C71.8434 10.7019 71.6527 11.0166 71.3306 11.2747C71.0084 11.5329 70.6524 11.6619 70.2582 11.6619H61.0563L60.7893 13.0535C60.7384 13.3359 60.713 13.6101 60.713 13.8723C60.713 14.0014 60.7172 14.1224 60.7257 14.2434C60.7681 14.6064 60.8953 14.9211 61.1114 15.1792C61.3276 15.4374 61.6582 15.639 62.1032 15.7802C62.5483 15.9214 63.129 15.994 63.8538 15.994H69.4444C69.8174 15.994 70.1226 16.119 70.3684 16.3691C70.5591 16.5627 70.6482 16.8007 70.6397 17.0871C70.6397 17.1637 70.6354 17.2404 70.6227 17.317C70.5422 17.6921 70.3387 18.0068 70.0166 18.2609C69.6945 18.515 69.3512 18.64 68.9909 18.64H63.3239C60.9249 18.64 59.2549 18.1399 58.3055 17.1436C57.5892 16.3974 57.2332 15.4414 57.2332 14.2838C57.2416 13.9086 57.2755 13.5174 57.3476 13.1019ZM61.5438 9.00379H68.7705L69.1774 6.74498C69.2282 6.43036 69.2537 6.13591 69.2537 5.86969C69.2537 5.73658 69.2494 5.59944 69.2367 5.46633C69.1943 5.08314 69.0629 4.75239 68.8383 4.47407C68.6137 4.19575 68.283 3.98601 67.8507 3.8408C67.4184 3.69559 66.8504 3.62702 66.1511 3.62702C65.4263 3.62702 64.8202 3.69962 64.3285 3.84483C63.8368 3.99004 63.4257 4.19979 63.0993 4.4781C62.7729 4.75642 62.5229 5.08718 62.3448 5.46633C62.1711 5.84549 62.0397 6.27305 61.9591 6.75305L61.5438 9.00379Z" fill="#3EA7DC"/>
<path d="M81.3546 17.0145L83.3044 6.5312C83.618 4.84516 84.4361 3.49391 85.767 2.48148C87.0979 1.46905 88.9671 0.964847 91.3746 0.964847C93.7015 0.964847 95.3715 1.47711 96.393 2.50164C97.7536 1.47711 99.6228 0.964847 102.001 0.964847C104.395 0.95678 106.074 1.46098 107.032 2.48954C107.748 3.24383 108.1 4.19575 108.091 5.34532C108.091 5.74062 108.049 6.16414 107.968 6.60784L106.057 17.0145C105.955 17.4663 105.714 17.8494 105.328 18.1641C104.942 18.4787 104.514 18.64 104.039 18.64C103.565 18.64 103.196 18.4827 102.933 18.1641C102.73 17.9261 102.624 17.6437 102.615 17.317C102.615 17.2202 102.628 17.1194 102.649 17.0145L104.565 6.74901C104.616 6.43439 104.641 6.13994 104.641 5.87372C104.641 5.74062 104.637 5.60347 104.624 5.47037C104.582 5.08717 104.45 4.75642 104.226 4.4781C103.997 4.19979 103.671 3.99004 103.238 3.84483C102.806 3.69962 102.238 3.63105 101.53 3.63105C100.805 3.63105 100.191 3.70365 99.6863 3.84483C99.182 3.99004 98.7708 4.19979 98.4572 4.4781C98.1393 4.75642 97.8892 5.08314 97.7027 5.4623C97.5162 5.84146 97.3848 6.26902 97.3 6.74901L95.4139 17.0145C95.3334 17.4663 95.096 17.8494 94.7061 18.1641C94.3119 18.4787 93.8795 18.64 93.4091 18.64C92.9343 18.64 92.5613 18.4827 92.2901 18.1641C92.0782 17.9261 91.9722 17.6437 91.9722 17.317C91.9722 17.2202 91.9807 17.1194 92.0019 17.0145L93.9177 6.74901C93.9685 6.43439 93.994 6.13994 93.994 5.87372C93.994 5.74062 93.9897 5.60347 93.9813 5.47037C93.9389 5.08717 93.8075 4.75642 93.5786 4.4781C93.354 4.19979 93.0233 3.99004 92.591 3.84483C92.1587 3.69962 91.595 3.63105 90.8998 3.63105C90.175 3.63105 89.5647 3.70365 89.073 3.84886C88.5813 3.99407 88.166 4.20382 87.8354 4.48214C87.5048 4.76045 87.2504 5.08717 87.0724 5.46633C86.8944 5.84549 86.7673 6.27305 86.6867 6.75305L84.7624 17.0185C84.6819 17.4703 84.4488 17.8535 84.0673 18.1681C83.6858 18.4827 83.2535 18.6441 82.7788 18.6441C82.3125 18.6441 81.9395 18.4868 81.6598 18.1681C81.4479 17.918 81.3377 17.6316 81.325 17.3049C81.325 17.2162 81.3334 17.1194 81.3546 17.0145Z" fill="#3EA7DC"/>
<path d="M108.676 13.1019L109.872 6.5312C110.202 4.84516 111.029 3.49391 112.351 2.48148C113.669 1.46905 115.539 0.964848 117.959 0.964848C120.337 0.956781 122.002 1.45695 122.96 2.47341C123.677 3.21962 124.029 4.16348 124.016 5.30499C124.016 5.69625 123.978 6.11574 123.897 6.5554L122.689 13.0696V13.0979C122.375 14.7678 121.557 16.1069 120.227 17.1153C118.896 18.1278 117.039 18.632 114.653 18.632C112.254 18.632 110.58 18.1318 109.622 17.1355C108.905 16.3974 108.549 15.4696 108.549 14.3443C108.541 13.9611 108.587 13.5456 108.676 13.1019ZM112.05 14.2878C112.089 14.6427 112.22 14.9453 112.436 15.1994C112.652 15.4535 112.983 15.6471 113.424 15.7843C113.869 15.9214 114.449 15.99 115.178 15.99C116.577 15.99 117.582 15.7036 118.192 15.1348C118.802 14.5661 119.188 13.8199 119.349 12.9002L120.498 6.74498C120.549 6.43036 120.574 6.13591 120.574 5.86969C120.574 5.73658 120.57 5.59944 120.557 5.46633C120.519 5.08314 120.383 4.75239 120.159 4.47407C119.934 4.19575 119.603 3.98601 119.175 3.8408C118.743 3.69559 118.179 3.62702 117.476 3.62702C116.755 3.62702 116.149 3.69962 115.657 3.84483C115.166 3.99004 114.759 4.19979 114.432 4.4781C114.106 4.75642 113.856 5.08718 113.682 5.46633C113.508 5.84549 113.381 6.27708 113.301 6.75708L112.114 13.1342C112.063 13.4085 112.033 13.6747 112.025 13.9328C112.029 14.0538 112.038 14.1749 112.05 14.2878Z" fill="#3EA7DC"/>
<path d="M124.05 17.0145L125.999 6.5312C126.313 4.84516 127.131 3.49391 128.453 2.48148C129.78 1.46905 131.641 0.964847 134.036 0.964847C136.435 0.95678 138.109 1.46098 139.067 2.48954C139.783 3.24383 140.135 4.19575 140.122 5.34532C140.122 5.74062 140.084 6.16414 140.004 6.60784L138.092 17.0145C137.99 17.4663 137.749 17.8494 137.367 18.1641C136.981 18.4787 136.553 18.64 136.079 18.64C135.595 18.64 135.218 18.4827 134.955 18.1641C134.752 17.9261 134.654 17.6437 134.654 17.317C134.654 17.2202 134.667 17.1194 134.688 17.0145L136.604 6.74901C136.655 6.43439 136.681 6.13994 136.681 5.87372C136.681 5.74062 136.676 5.60347 136.664 5.47037C136.621 5.08717 136.49 4.75642 136.261 4.4781C136.032 4.19979 135.697 3.99004 135.252 3.84483C134.807 3.69962 134.231 3.63105 133.523 3.63105C132.798 3.63105 132.183 3.70365 131.692 3.84483C131.196 3.99004 130.785 4.19979 130.458 4.4781C130.132 4.75642 129.878 5.08314 129.7 5.4623C129.522 5.84146 129.394 6.26902 129.314 6.74901L127.419 17.0145C127.318 17.4663 127.08 17.8495 126.699 18.1681C126.317 18.4868 125.893 18.6441 125.423 18.6441C124.952 18.6441 124.584 18.4868 124.312 18.1681C124.113 17.9301 124.011 17.6558 124.011 17.3493C124.02 17.2404 124.033 17.1274 124.05 17.0145Z" fill="#3EA7DC"/>
<path d="M140.588 13.1019L141.796 6.5312C142.127 4.84516 142.953 3.49391 144.276 2.48148C145.594 1.46905 147.463 0.964848 149.884 0.964848C152.261 0.956781 153.927 1.45695 154.885 2.47341C155.61 3.23979 155.966 4.20382 155.957 5.36549C155.957 5.74062 155.923 6.13591 155.851 6.55944L155.144 10.3268C155.084 10.7019 154.893 11.0166 154.571 11.2747C154.249 11.5329 153.893 11.6619 153.499 11.6619H144.297L144.034 13.0535C143.983 13.3359 143.958 13.6101 143.958 13.8723C143.958 14.0014 143.962 14.1224 143.975 14.2434C144.013 14.6064 144.145 14.9211 144.361 15.1792C144.577 15.4374 144.907 15.639 145.353 15.7802C145.798 15.9214 146.378 15.994 147.103 15.994H152.694C153.067 15.994 153.372 16.119 153.613 16.3691C153.804 16.5627 153.897 16.8007 153.885 17.0871C153.885 17.1637 153.88 17.2404 153.872 17.317C153.791 17.6921 153.588 18.0068 153.266 18.2609C152.944 18.515 152.6 18.64 152.24 18.64H146.573C144.174 18.64 142.504 18.1399 141.555 17.1436C140.838 16.3974 140.482 15.4414 140.482 14.2838C140.482 13.9086 140.516 13.5174 140.588 13.1019ZM144.789 9.00379H152.016L152.422 6.74498C152.473 6.43036 152.499 6.13591 152.499 5.86969C152.499 5.73658 152.494 5.59944 152.482 5.46633C152.439 5.08314 152.308 4.75239 152.083 4.47407C151.859 4.19575 151.528 3.98601 151.096 3.8408C150.663 3.69559 150.095 3.62702 149.396 3.62702C148.671 3.62702 148.065 3.69962 147.574 3.84483C147.082 3.99004 146.671 4.19979 146.349 4.4781C146.022 4.75642 145.772 5.08718 145.594 5.46633C145.42 5.84549 145.293 6.27305 145.208 6.75305L144.789 9.00379Z" fill="#3EA7DC"/>
<path d="M157.441 2.8808C157.432 2.77593 157.428 2.67509 157.428 2.57828C157.428 2.39677 157.449 2.20719 157.488 2.01761C157.56 1.73123 157.78 1.48115 158.153 1.2714C158.484 1.08989 158.78 0.997117 159.043 0.997117C159.064 0.997117 159.077 1.00115 159.09 1.01325C159.369 1.02132 159.594 1.08989 159.755 1.21493C159.959 1.34804 160.124 1.52955 160.255 1.75946L163.163 7.20884C163.939 6.30935 164.651 5.48247 165.295 4.73625C165.566 4.42163 165.837 4.10701 166.105 3.79239C166.372 3.48181 166.613 3.19946 166.829 2.94534C167.045 2.69122 167.228 2.47744 167.38 2.29997C167.533 2.12249 167.626 2.00551 167.669 1.94904C167.791 1.81594 167.953 1.66266 168.152 1.49728C168.355 1.32787 168.576 1.1988 168.817 1.10199C169.05 1.02535 169.288 0.985016 169.529 0.985016C169.559 0.985016 169.584 0.985016 169.606 0.985016C169.89 0.993083 170.174 1.11006 170.466 1.32787C170.758 1.54972 170.928 1.77963 170.979 2.01761C171 2.11442 171.008 2.20316 171.008 2.2919C171.008 2.43711 170.983 2.56618 170.932 2.67912C170.852 2.91711 170.695 3.14299 170.466 3.35677L164.362 10.1534L163.125 16.7523C163.065 17.1073 162.955 17.4219 162.794 17.6881C162.654 17.9301 162.442 18.1479 162.163 18.3456C161.883 18.5432 161.518 18.64 161.069 18.64C160.62 18.64 160.298 18.5513 160.103 18.3738C159.908 18.1963 159.781 18.0027 159.721 17.793C159.641 17.5348 159.641 17.2363 159.721 16.9016L161.031 10.1614L157.801 3.88517C157.619 3.55038 157.5 3.21559 157.441 2.8808Z" fill="#3EA7DC"/>
</g>
<defs>
<clipPath id="clip0_272_3319">
<rect width="171" height="17.6873" fill="white" transform="translate(0 0.952759)"/>
</clipPath>
</defs>
</svg>
