<svg width="485" height="271" viewBox="0 0 485 271" fill="none" xmlns="http://www.w3.org/2000/svg">
<g clip-path="url(#clip0_403_3047)">
<path d="M472.644 105.04L467.502 118.195L471.147 119.62L476.289 106.465L472.644 105.04Z" fill="#367CFF"/>
<path d="M151.461 72.7842L148.545 75.3953L157.968 85.9162L160.883 83.305L151.461 72.7842Z" fill="#0CBC8B"/>
<path d="M194.66 119.874L183.356 128.341L185.703 131.474L197.007 123.006L194.66 119.874Z" fill="#367CFF"/>
<path d="M325.402 22.7092L322.72 25.5595L333.006 35.2387L335.688 32.3884L325.402 22.7092Z" fill="#367CFF"/>
<path d="M250.61 25.8566L243.571 38.1014L246.964 40.0521L254.003 27.8073L250.61 25.8566Z" fill="#0CBC8B"/>
<path d="M352.83 130.57L349.52 132.658L357.057 144.602L360.367 142.514L352.83 130.57Z" fill="#0CBC8B"/>
<path d="M199.353 188.732L195.852 190.481L202.164 203.116L205.665 201.366L199.353 188.732Z" fill="#0CBC8B"/>
<path d="M148.129 155.488L144.073 169.017L147.822 170.14L151.877 156.612L148.129 155.488Z" fill="#367CFF"/>
<path d="M393.133 197.645L381.403 205.511L383.583 208.762L395.313 200.896L393.133 197.645Z" fill="#367CFF"/>
<path d="M394.89 0.324707L387.851 12.5692L391.244 14.5198L398.283 2.27529L394.89 0.324707Z" fill="#0CBC8B"/>
<path d="M3.64477 100.498L-0.000488281 101.923L5.14115 115.077L8.78641 113.652L3.64477 100.498Z" fill="#0CBC8B"/>
<path d="M382.047 84.2471L379.7 87.3799L391.004 95.8472L393.351 92.7143L382.047 84.2471Z" fill="#0CBC8B"/>
<path d="M64.5192 26.5394L54.2332 36.2186L56.9153 39.0689L67.2013 29.3897L64.5192 26.5394Z" fill="#367CFF"/>
<path d="M178.448 15.0131L175.055 16.9637L182.095 29.2085L185.488 27.2579L178.448 15.0131Z" fill="#367CFF"/>
<path d="M40.0518 168.753L32.5144 180.697L35.8243 182.786L43.3616 170.841L40.0518 168.753Z" fill="#0CBC8B"/>
<path d="M6.66633 201.472L4.48633 204.724L16.223 212.591L18.403 209.339L6.66633 201.472Z" fill="#367CFF"/>
<path d="M459.474 45.4958L456.081 47.4464L463.12 59.6909L466.513 57.7403L459.474 45.4958Z" fill="#367CFF"/>
<path d="M312.425 78.8651L303.002 89.3859L305.917 91.9971L315.34 81.4762L312.425 78.8651Z" fill="#367CFF"/>
<path d="M229.705 197.452L223.393 210.087L226.894 211.836L233.206 199.202L229.705 197.452Z" fill="#0CBC8B"/>
<path d="M280.931 164.21L277.182 165.333L281.238 178.862L284.986 177.738L280.931 164.21Z" fill="#367CFF"/>
<path d="M282.193 171.93L268.853 161.79C268.56 161.567 268.224 161.408 267.866 161.322C267.507 161.237 267.135 161.227 266.773 161.293C266.411 161.359 266.067 161.499 265.762 161.706C265.457 161.912 265.198 162.18 265.002 162.491C264.659 163.078 264.546 163.772 264.684 164.438C264.823 165.103 265.204 165.694 265.753 166.095L268.614 168.269L256.481 165.56C255.138 165.235 253.281 165.697 253.016 167.228C252.876 167.811 252.937 168.424 253.189 168.967C253.442 169.511 253.872 169.952 254.408 170.22C254.402 170.232 254.397 170.245 254.393 170.257C254.392 170.268 254.392 170.278 254.393 170.288L252.321 169.787C251.937 169.695 251.537 169.689 251.151 169.771C250.764 169.852 250.401 170.019 250.087 170.259C249.774 170.498 249.517 170.805 249.337 171.156C249.157 171.508 249.057 171.895 249.046 172.29C249.04 172.912 249.248 173.517 249.635 174.003C250.022 174.49 250.564 174.83 251.171 174.965L252.052 175.178C252.057 175.206 252.068 175.233 252.083 175.258C251.454 175.252 250.843 175.471 250.36 175.874C249.877 176.277 249.554 176.839 249.447 177.459C249.35 178.141 249.514 178.834 249.906 179.401C250.297 179.967 250.888 180.365 251.56 180.515L253.751 181.044C253.715 181.059 253.683 181.082 253.657 181.111C253.632 181.14 253.614 181.175 253.604 181.213C253.596 181.258 253.6 181.305 253.618 181.348C253.056 181.499 252.559 181.83 252.204 182.29C251.848 182.751 251.654 183.315 251.651 183.897C251.66 184.507 251.875 185.097 252.261 185.571C252.647 186.044 253.182 186.374 253.778 186.506L272.258 190.97C274.844 191.595 277.556 191.433 280.049 190.505C282.542 189.578 284.701 187.928 286.25 185.765C287.585 183.901 288.141 181.589 287.799 179.322C287.457 177.054 286.244 175.009 284.418 173.621L282.193 171.93Z" fill="#E98862"/>
<g opacity="0.2">
<path opacity="0.2" d="M266.404 172.961C266.389 173.023 266.349 173.076 266.295 173.11C266.241 173.144 266.175 173.154 266.113 173.14L254.577 170.548C254.546 170.54 254.516 170.527 254.49 170.509C254.463 170.49 254.441 170.467 254.424 170.44C254.407 170.412 254.395 170.382 254.39 170.35C254.384 170.319 254.385 170.286 254.392 170.255C254.399 170.224 254.412 170.194 254.431 170.168C254.449 170.141 254.473 170.119 254.5 170.102C254.527 170.085 254.557 170.073 254.589 170.068C254.621 170.062 254.653 170.063 254.685 170.07L266.22 172.663C266.252 172.67 266.281 172.683 266.308 172.702C266.334 172.72 266.356 172.744 266.374 172.771C266.391 172.799 266.402 172.829 266.408 172.861C266.413 172.892 266.412 172.925 266.405 172.956L266.404 172.961Z" fill="#0C0C0C"/>
</g>
<g opacity="0.2">
<path opacity="0.2" d="M265.402 178.08C265.386 178.143 265.347 178.197 265.292 178.23C265.237 178.264 265.171 178.274 265.108 178.26L252.234 175.368C252.203 175.361 252.173 175.348 252.147 175.33C252.12 175.311 252.098 175.287 252.081 175.26C252.063 175.233 252.052 175.202 252.046 175.171C252.041 175.139 252.042 175.106 252.049 175.075C252.065 175.012 252.105 174.959 252.159 174.924C252.214 174.89 252.279 174.878 252.343 174.89L265.217 177.781C265.248 177.788 265.278 177.801 265.304 177.82C265.331 177.839 265.353 177.862 265.37 177.89C265.387 177.917 265.399 177.947 265.404 177.979C265.41 178.011 265.409 178.043 265.402 178.075V178.08Z" fill="#0C0C0C"/>
</g>
<g opacity="0.2">
<path opacity="0.2" d="M264.348 183.631C264.333 183.693 264.294 183.746 264.239 183.78C264.185 183.814 264.12 183.824 264.057 183.81L253.788 181.504C253.724 181.49 253.669 181.451 253.635 181.396C253.6 181.342 253.588 181.275 253.603 181.212C253.617 181.149 253.656 181.094 253.71 181.059C253.765 181.024 253.832 181.013 253.895 181.027L264.164 183.333C264.196 183.34 264.226 183.353 264.252 183.372C264.278 183.39 264.301 183.414 264.318 183.441C264.335 183.468 264.347 183.499 264.352 183.531C264.358 183.562 264.357 183.595 264.35 183.627L264.348 183.631Z" fill="#0C0C0C"/>
</g>
<path d="M218.861 102.184L226.309 87.1738C226.472 86.844 226.703 86.5519 226.986 86.3161C227.268 86.0802 227.597 85.9059 227.951 85.8041C228.305 85.7023 228.676 85.6752 229.041 85.7248C229.406 85.7743 229.756 85.8992 230.07 86.0916C230.639 86.4647 231.049 87.0356 231.22 87.6937C231.392 88.3519 231.313 89.0503 230.999 89.6537L229.402 92.8723L239.069 85.0579C240.128 84.17 241.997 83.7585 242.914 85.0129C243.299 85.4726 243.516 86.049 243.531 86.6481C243.546 87.2472 243.357 87.8336 242.996 88.3118C243.007 88.3197 243.017 88.3287 243.026 88.3387C243.031 88.3473 243.036 88.3563 243.04 88.3656L244.674 86.9957C244.977 86.7423 245.333 86.5597 245.715 86.4611C246.097 86.3626 246.497 86.3506 246.885 86.426C247.272 86.5014 247.638 86.6623 247.955 86.8971C248.273 87.1318 248.534 87.4345 248.72 87.7829C249.001 88.3375 249.084 88.972 248.953 89.5801C248.823 90.1882 248.488 90.7331 248.004 91.1238L247.308 91.7065C247.316 91.7343 247.319 91.7634 247.316 91.7921C247.877 91.5076 248.521 91.4319 249.133 91.5786C249.744 91.7253 250.284 92.0849 250.655 92.593C251.045 93.1611 251.206 93.8551 251.106 94.5366C251.006 95.2181 250.653 95.8369 250.117 96.2695L248.39 97.7162C248.428 97.7128 248.467 97.7188 248.504 97.7336C248.54 97.7484 248.572 97.7716 248.597 97.8013C248.625 97.8384 248.642 97.8827 248.646 97.929C249.216 97.8142 249.808 97.89 250.331 98.1447C250.854 98.3993 251.279 98.8188 251.54 99.3385C251.803 99.8898 251.872 100.514 251.737 101.109C251.601 101.705 251.269 102.238 250.793 102.621L236.219 114.829C234.18 116.537 231.677 117.597 229.032 117.873C226.387 118.15 223.719 117.63 221.371 116.38C219.347 115.303 217.823 113.479 217.122 111.296C216.421 109.112 216.599 106.742 217.618 104.688L218.861 102.184Z" fill="#E98862"/>
<g opacity="0.2">
<path opacity="0.2" d="M233.465 96.094C233.506 96.1433 233.565 96.1743 233.63 96.1802C233.694 96.1862 233.758 96.1666 233.807 96.1258L242.992 88.6807C243.042 88.6399 243.075 88.5806 243.081 88.5161C243.088 88.4515 243.069 88.387 243.028 88.3366C242.987 88.2861 242.928 88.254 242.863 88.2473C242.799 88.2406 242.734 88.2597 242.684 88.3006L233.499 95.7457C233.449 95.7865 233.417 95.8453 233.411 95.9094C233.404 95.9736 233.423 96.0378 233.463 96.0881L233.465 96.094Z" fill="#0C0C0C"/>
</g>
<g opacity="0.2">
<path opacity="0.2" d="M236.637 100.236C236.678 100.285 236.737 100.316 236.802 100.322C236.866 100.328 236.929 100.308 236.979 100.267L247.23 91.9585C247.279 91.9177 247.311 91.8588 247.318 91.7947C247.325 91.7305 247.306 91.6663 247.265 91.6161C247.223 91.5679 247.165 91.5374 247.101 91.5307C247.038 91.524 246.974 91.5416 246.923 91.5799L236.669 99.887C236.619 99.9277 236.587 99.9866 236.58 100.051C236.574 100.115 236.593 100.179 236.633 100.229L236.637 100.236Z" fill="#0C0C0C"/>
</g>
<g opacity="0.2">
<path opacity="0.2" d="M240.046 104.741C240.087 104.79 240.147 104.821 240.211 104.827C240.275 104.833 240.339 104.813 240.388 104.772L248.565 98.1449C248.615 98.104 248.647 98.0448 248.654 97.9803C248.661 97.9157 248.642 97.8511 248.601 97.8007C248.56 97.7503 248.501 97.7182 248.436 97.7115C248.372 97.7047 248.307 97.7239 248.257 97.7648L240.078 104.392C240.028 104.433 239.996 104.492 239.99 104.556C239.983 104.62 240.002 104.684 240.042 104.735L240.046 104.741Z" fill="#0C0C0C"/>
</g>
<path d="M51.7114 89.3142C51.7114 89.3142 50.6611 105.075 47.1156 110.791C36.9074 127.253 33.95 145.771 44.1724 155.447C54.3949 165.122 119.597 165.256 124.536 143.003C128.695 124.268 119.771 122.253 117.599 106.8C116.617 99.8071 113.914 85.1435 113.914 85.1435" fill="#0A0A0A"/>
<path d="M107.661 139.74C107.549 139.726 106.3 160.45 82.2244 158.643C65.5574 157.394 59.6148 139.71 59.2332 139.71C61.0301 139.328 64.056 138.773 64.8539 138.347C67.4786 136.937 70.7246 135.469 71.572 130.372C72.0612 127.437 71.232 112.407 71.4868 109.433L97.0705 115.145C96.7129 121.423 94.211 135.974 102.98 138.55C104.439 138.977 106.011 139.369 107.661 139.74Z" fill="#E98862"/>
<path opacity="0.5" d="M97.4292 132.604C97.0284 131.312 96.7704 129.981 96.6596 128.633C96.3785 125.558 96.4346 122.461 96.8269 119.398C91.6273 118.696 86.7289 116.55 82.6882 113.203C82.2132 114.957 79.6002 122.623 80.3238 124.291C81.6902 127.443 88.1153 132.604 97.4292 132.604Z" fill="#0C0C0C"/>
<path d="M94.1212 126.147C84.0343 127.126 70.9836 123.089 68.2802 109.656L65.8409 97.5357C63.1374 84.1034 68.0008 71.7945 80.6478 69.249C93.2954 66.705 104.94 75.6897 107.643 89.1224L108.724 94.4883C109.761 99.6423 112.117 124.406 94.1212 126.147Z" fill="#E98862"/>
<path opacity="0.1" d="M87.7093 108.545C89.3692 108.347 90.5971 107.199 90.4518 105.982C90.3066 104.764 88.8432 103.938 87.1833 104.136C85.5234 104.334 84.2955 105.482 84.4408 106.699C84.586 107.917 86.0494 108.743 87.7093 108.545Z" fill="#0C0C0C"/>
<path opacity="0.1" d="M105.249 103.677C105.396 104.893 106.861 105.718 108.521 105.523C108.808 105.488 109.09 105.424 109.364 105.331C109.441 103.882 109.446 102.488 109.404 101.197C108.942 101.081 108.464 101.053 107.993 101.114C106.333 101.31 105.105 102.457 105.249 103.677Z" fill="#0C0C0C"/>
<path opacity="0.5" d="M97.9146 107.435C97.9228 107.434 97.9309 107.433 97.939 107.431C98.4516 107.324 98.9579 107.189 99.4556 107.027C100.198 106.778 101.168 106.37 101.035 105.698C100.881 104.933 97.121 97.0973 96.6944 96.2074C96.6769 96.1673 96.6516 96.131 96.6198 96.1009C96.588 96.0708 96.5504 96.0474 96.5093 96.0321C96.4683 96.0168 96.4246 96.0099 96.3808 96.0119C96.3371 96.0139 96.2941 96.0247 96.2547 96.0437C96.2152 96.0626 96.1799 96.0894 96.151 96.1223C96.122 96.1552 96.1 96.1935 96.0863 96.2351C96.0725 96.2767 96.0673 96.3207 96.0709 96.3643C96.0746 96.408 96.0869 96.4505 96.1074 96.4892C97.7106 99.8262 100.293 105.313 100.396 105.828C100.315 106.068 99.0833 106.537 97.8118 106.794C97.7696 106.801 97.7292 106.816 97.6929 106.838C97.6565 106.861 97.6249 106.89 97.5999 106.925C97.5749 106.959 97.557 106.998 97.5471 107.04C97.5373 107.082 97.5357 107.125 97.5425 107.167C97.5493 107.209 97.5644 107.249 97.5868 107.286C97.6092 107.322 97.6386 107.354 97.6732 107.379C97.7079 107.404 97.7471 107.422 97.7887 107.432C97.8303 107.441 97.8734 107.443 97.9155 107.436L97.9146 107.435Z" fill="#0C0C0C"/>
<path d="M55.7493 101.887L67.0876 99.6727C75.6526 96.0911 78.0826 81.1642 78.0826 81.1642C78.0826 81.1642 88.6528 91.2311 113.916 85.1436C113.916 85.1436 108.428 49.8771 71.1252 60.5844C59.0976 64.0359 50.5777 76.2959 51.8448 92.5344C52.7327 103.911 55.7493 101.887 55.7493 101.887Z" fill="#0A0A0A"/>
<path d="M69.889 113.59C66.0456 114.364 62.1024 110.879 61.3275 107.035C60.5525 103.19 63.2433 100.445 67.0867 99.6707L69.5856 101.848L73.1927 112.924L69.889 113.59Z" fill="#E98862"/>
<path d="M99.419 89.9585C100.381 89.2785 101.505 88.8653 102.678 88.7609C103.268 88.7043 103.862 88.7373 104.442 88.8587C105.026 88.9778 105.594 89.1698 106.13 89.4301L106.147 89.438C106.206 89.4642 106.274 89.4661 106.335 89.4434C106.395 89.4206 106.445 89.3749 106.473 89.3161C106.5 89.2573 106.504 89.1899 106.483 89.1285C106.461 89.0671 106.417 89.0164 106.359 88.9874C105.79 88.6871 105.186 88.4597 104.56 88.3103C103.93 88.1572 103.281 88.0996 102.634 88.1395C101.324 88.2119 100.057 88.6343 98.965 89.3626C98.9243 89.3902 98.8894 89.4255 98.8624 89.4666C98.8353 89.5076 98.8167 89.5536 98.8074 89.6019C98.7982 89.6502 98.7986 89.6999 98.8086 89.748C98.8185 89.7961 98.8379 89.8418 98.8656 89.8825C98.8933 89.9231 98.9287 89.9579 98.9698 89.9848C99.011 90.0117 99.057 90.0303 99.1053 90.0394C99.1536 90.0485 99.2033 90.048 99.2514 90.0379C99.2995 90.0278 99.3451 90.0083 99.3857 89.9805L99.3945 89.9746L99.419 89.9585Z" fill="#0C0C0C"/>
<path d="M89.0615 91.3899C87.7739 91.1337 86.4412 91.2278 85.2025 91.6624C84.5901 91.8733 84.0129 92.1749 83.4902 92.5572C82.9694 92.9346 82.4983 93.3761 82.088 93.8713C82.0466 93.9205 82.0258 93.9839 82.0301 94.0481C82.0343 94.1123 82.0633 94.1724 82.1109 94.2157C82.1584 94.259 82.2209 94.2823 82.2853 94.2805C82.3496 94.2788 82.4108 94.2522 82.4559 94.2064L82.4691 94.1927C82.865 93.7467 83.3154 93.3522 83.8096 93.0185C84.2987 92.6849 84.8354 92.4271 85.4016 92.2539C86.5253 91.9009 87.7224 91.8519 88.8712 92.112L88.8996 92.1193C88.996 92.1427 89.0977 92.1268 89.1824 92.0751C89.2671 92.0235 89.3277 91.9403 89.3511 91.8439C89.3745 91.7475 89.3586 91.6458 89.3069 91.5611C89.2553 91.4764 89.1721 91.4157 89.0757 91.3923L89.0615 91.3899Z" fill="#0C0C0C"/>
<path d="M67.0956 99.4858C74.7173 96.6483 77.2466 91.3852 78.0255 87.4684C78.5296 84.8562 78.4824 82.1676 77.887 79.5747L77.6512 79.6398C78.2377 82.1988 78.283 84.8522 77.7843 87.4298C77.0152 91.2824 74.5221 96.4614 67.01 99.2573L67.0956 99.4858Z" fill="#0C0C0C"/>
<path d="M127.269 142.206L199.639 166.396L178.391 175.841L214.477 101.811L243.97 115.555L210.488 190.799C208.795 194.604 205.789 197.672 202.02 199.444C198.251 201.216 193.97 201.572 189.96 200.448L189.24 200.244L115.775 179.618L127.269 142.206Z" fill="#367CFF"/>
<path d="M81.7753 153.462C65.0965 152.676 64.3945 138.52 64.3945 138.52C64.3945 138.52 56.1304 139.054 50.6369 139.797C41.6429 141.014 35.7096 144.064 30.9876 148.785C26.5953 153.178 23.9211 157.93 26.7508 188.271C28.7997 210.241 27.358 258.563 27.358 258.563H128.995C128.995 258.563 136.092 188.75 136.934 178.863C138.539 159.984 143.076 155.816 133.884 146.091C127.219 139.038 110.01 138.52 103.084 138.521C102.971 138.521 104.489 154.533 81.7753 153.462Z" fill="#367CFF"/>
<path d="M101.296 110.083C98.0184 111.749 94.2794 112.276 90.6692 111.58C90.5442 111.557 90.4151 111.57 90.297 111.617C90.179 111.664 90.0767 111.744 90.0023 111.847C89.9279 111.95 89.8843 112.072 89.8767 112.199C89.8691 112.326 89.8977 112.453 89.9593 112.564C91.0356 114.46 93.5884 117.701 97.968 116.38C100.796 115.527 101.865 112.618 102.261 110.818C102.288 110.693 102.279 110.564 102.235 110.444C102.191 110.325 102.114 110.22 102.012 110.143C101.911 110.066 101.79 110.019 101.663 110.008C101.536 109.998 101.408 110.024 101.296 110.083Z" fill="white"/>
<path d="M101.501 95.5079C102.375 95.5079 103.084 94.7989 103.084 93.9243C103.084 93.0497 102.375 92.3406 101.501 92.3406C100.626 92.3406 99.917 93.0497 99.917 93.9243C99.917 94.7989 100.626 95.5079 101.501 95.5079Z" fill="#0C0C0C"/>
<path d="M86.2836 98.1717C87.1582 98.1717 87.8672 97.4626 87.8672 96.588C87.8672 95.7134 87.1582 95.0044 86.2836 95.0044C85.409 95.0044 84.7 95.7134 84.7 96.588C84.7 97.4626 85.409 98.1717 86.2836 98.1717Z" fill="#0C0C0C"/>
<path d="M136.708 185.741C136.698 185.742 136.687 185.742 136.677 185.741C136.613 185.733 136.554 185.7 136.515 185.649C136.475 185.598 136.457 185.533 136.465 185.469L138.039 172.71C138.042 172.678 138.052 172.647 138.067 172.619C138.083 172.591 138.104 172.566 138.13 172.546C138.155 172.526 138.184 172.512 138.215 172.504C138.247 172.495 138.279 172.494 138.311 172.498C138.343 172.502 138.374 172.512 138.402 172.528C138.43 172.544 138.454 172.565 138.474 172.59C138.494 172.616 138.508 172.645 138.517 172.676C138.525 172.707 138.528 172.739 138.524 172.771L136.95 185.529C136.942 185.587 136.913 185.641 136.869 185.68C136.824 185.719 136.767 185.741 136.708 185.741Z" fill="#0C0C0C"/>
<path d="M393.975 87.2978C393.975 87.2978 387.913 80.4892 388.616 67.7384C389.16 57.8658 396.775 65.85 396.775 65.85C396.775 65.85 397.237 58.7449 402.141 60.4367C407.045 62.1284 408.422 69.9629 408.422 69.9629" fill="#0C0C0C"/>
<path d="M428.048 66.4424C428.048 66.4424 452.536 74.113 436.732 106.217L434.488 105.923L429.933 105.329" fill="#0C0C0C"/>
<path d="M393.212 139.689C393.325 139.674 394.57 160.329 418.565 158.529C435.177 157.284 441.1 139.66 441.481 139.66C439.69 139.279 436.673 138.725 435.878 138.301C433.262 136.895 430.026 135.433 429.182 130.353C428.697 127.425 429.521 112.447 429.268 109.485L403.768 115.176C404.125 121.432 406.618 135.936 397.878 138.503C396.424 138.927 394.856 139.318 393.212 139.689Z" fill="#E98862"/>
<path opacity="0.52" d="M403.411 132.576C403.81 131.288 404.067 129.961 404.178 128.618C404.458 125.553 404.402 122.466 404.011 119.413C409.194 118.714 414.077 116.575 418.104 113.239C418.577 114.988 421.182 122.628 420.46 124.29C419.098 127.432 412.693 132.576 403.411 132.576Z" fill="#0C0C0C"/>
<path d="M406.469 125.581C416.51 126.662 429.56 122.782 432.401 109.425L434.963 97.3714C437.801 84.0155 433.089 71.6933 420.511 69.0197C407.934 66.346 396.231 75.1766 393.392 88.5345L392.257 93.8705C391.9 95.7094 391.668 97.5705 391.564 99.4408C391.251 104.382 390.795 111.899 393.075 117.5C395.228 122.787 400.053 124.89 406.469 125.581Z" fill="#E98862"/>
<path d="M398.492 94.8074C399.366 94.8074 400.075 94.0984 400.075 93.2238C400.075 92.3492 399.366 91.6401 398.492 91.6401C397.617 91.6401 396.908 92.3492 396.908 93.2238C396.908 94.0984 397.617 94.8074 398.492 94.8074Z" fill="#0C0C0C"/>
<path d="M413.533 96.391C414.407 96.391 415.116 95.682 415.116 94.8074C415.116 93.9328 414.407 93.2238 413.533 93.2238C412.658 93.2238 411.949 93.9328 411.949 94.8074C411.949 95.682 412.658 96.391 413.533 96.391Z" fill="#0C0C0C"/>
<path d="M430.754 113.328C434.577 114.141 438.544 110.71 439.357 106.888C440.17 103.066 437.519 100.299 433.697 99.4868L431.183 101.629L427.468 112.629L430.754 113.328Z" fill="#E98862"/>
<path d="M428.172 106.411C428.172 106.411 430.655 87.2033 425.142 84.8878C421.473 83.3457 411.109 86.9239 402.839 83.5712C399.222 82.1036 395.466 82.3237 394.749 84.0277C394.465 84.7023 394.137 74.1282 401.555 67.6312C407.461 62.4581 423.149 63.7923 429.73 67.1865C447.954 76.5841 434.323 100.479 434.323 100.479L432.159 106.839L428.172 106.411Z" fill="#0C0C0C"/>
<g opacity="0.52">
<path opacity="0.52" d="M402.611 107.785L402.587 107.781C401.354 107.522 399.316 106.95 399.508 106.029C399.669 105.266 403.49 97.4585 403.926 96.571C403.963 96.4947 404.03 96.4363 404.11 96.4088C404.191 96.3813 404.279 96.3868 404.355 96.4243C404.431 96.4617 404.49 96.5279 404.517 96.6084C404.545 96.6889 404.539 96.777 404.502 96.8533C402.807 100.31 400.246 105.642 400.136 106.161C400.212 106.406 401.442 106.885 402.718 107.153C402.798 107.171 402.868 107.219 402.914 107.287C402.96 107.355 402.978 107.438 402.964 107.519C402.95 107.6 402.906 107.673 402.841 107.723C402.775 107.772 402.693 107.794 402.611 107.785Z" fill="#0C0C0C"/>
</g>
<path d="M402.327 88.2698C401.116 87.6588 399.763 87.3855 398.41 87.4787C397.745 87.5206 397.09 87.6619 396.467 87.898C395.851 88.1287 395.266 88.4364 394.727 88.8138C394.637 88.8712 394.573 88.9618 394.549 89.0659C394.525 89.1701 394.543 89.2795 394.599 89.3706C394.655 89.4616 394.745 89.5269 394.848 89.5525C394.952 89.578 395.062 89.5617 395.154 89.5071L395.182 89.4909C395.677 89.1842 396.208 88.941 396.763 88.7669C397.31 88.592 397.881 88.5011 398.455 88.4973C399.59 88.4806 400.71 88.7643 401.701 89.3197L401.738 89.3417C401.807 89.383 401.884 89.4102 401.964 89.4217C402.044 89.4332 402.125 89.4288 402.203 89.4087C402.281 89.3886 402.355 89.3532 402.419 89.3046C402.484 89.2561 402.538 89.1952 402.579 89.1256C402.62 89.056 402.646 88.979 402.657 88.899C402.668 88.819 402.663 88.7377 402.643 88.6596C402.622 88.5816 402.586 88.5084 402.537 88.4442C402.488 88.3801 402.427 88.3263 402.357 88.2859L402.327 88.2698Z" fill="#0C0C0C"/>
<path d="M411.382 90.7174C412.482 90.4352 413.637 90.4485 414.731 90.7561C415.284 90.9077 415.812 91.142 416.296 91.4513C416.788 91.7624 417.238 92.1341 417.638 92.5574L417.66 92.5794C417.735 92.6525 417.836 92.6937 417.941 92.6944C418.046 92.695 418.147 92.6551 418.223 92.5829C418.3 92.5107 418.345 92.4118 418.35 92.3069C418.355 92.2019 418.32 92.0991 418.251 92.0197C417.827 91.5166 417.341 91.069 416.805 90.6876C416.263 90.2996 415.667 89.9949 415.035 89.7835C413.751 89.3451 412.374 89.2606 411.046 89.5389C410.968 89.556 410.893 89.5884 410.827 89.6343C410.761 89.6802 410.705 89.7386 410.661 89.8062C410.574 89.9428 410.544 90.1087 410.579 90.2673C410.613 90.4259 410.709 90.5643 410.846 90.652C410.982 90.7398 411.148 90.7696 411.307 90.735L411.338 90.7272L411.382 90.7174Z" fill="#0C0C0C"/>
<path d="M400.674 110.748C404.241 111.64 408.003 111.317 411.366 109.831C411.482 109.78 411.611 109.763 411.737 109.783C411.862 109.802 411.98 109.857 412.075 109.941C412.171 110.025 412.241 110.134 412.277 110.256C412.312 110.378 412.313 110.508 412.278 110.63C411.652 112.719 409.89 116.452 405.326 116.143C402.379 115.944 400.686 113.348 399.896 111.682C399.841 111.567 399.821 111.438 399.837 111.311C399.853 111.185 399.905 111.065 399.986 110.967C400.068 110.869 400.176 110.796 400.298 110.757C400.42 110.718 400.55 110.715 400.674 110.748Z" fill="white"/>
<path d="M414.827 70.3678C416.532 66.367 415.71 62.1849 412.992 61.027C410.274 59.869 406.688 62.1737 404.984 66.1745C403.28 70.1754 404.101 74.3574 406.82 75.5154C409.538 76.6733 413.123 74.3687 414.827 70.3678Z" fill="#0C0C0C"/>
<path d="M418.939 153.462C435.617 152.676 436.319 138.52 436.319 138.52C436.319 138.52 444.583 139.054 450.077 139.797C459.071 141.014 465.004 144.064 469.726 148.785C474.119 153.178 476.792 157.93 473.963 188.271C471.914 210.241 473.356 258.563 473.356 258.563H371.719C371.719 258.563 364.622 188.752 363.78 178.863C362.174 159.984 357.638 155.816 366.829 146.091C373.495 139.038 390.703 138.52 397.63 138.521C397.742 138.521 396.226 154.533 418.939 153.462Z" fill="#367CFF"/>
<path d="M363.54 150.463L337.262 206.173L285.44 167.203L264.858 194.573L333.477 246.175C334.091 246.631 334.733 247.049 335.398 247.427C337.359 248.526 339.516 249.227 341.748 249.492C343.98 249.757 346.242 249.579 348.405 248.969C350.568 248.36 352.59 247.33 354.355 245.939C356.121 244.548 357.595 242.823 358.693 240.862L358.99 240.332L399.081 168.773L363.54 150.463Z" fill="#367CFF"/>
<path d="M477.255 259.052H14.4052C14.2755 259.052 14.1511 259.001 14.0593 258.909C13.9676 258.817 13.916 258.693 13.916 258.563C13.916 258.433 13.9676 258.309 14.0593 258.217C14.1511 258.125 14.2755 258.074 14.4052 258.074H477.255C477.385 258.074 477.51 258.125 477.601 258.217C477.693 258.309 477.745 258.433 477.745 258.563C477.745 258.693 477.693 258.817 477.601 258.909C477.51 259.001 477.385 259.052 477.255 259.052Z" fill="#292A2E"/>
<path d="M376.582 185.795H128.73V270.515H376.582V185.795Z" fill="white"/>
<path d="M376.826 270.76H128.485V185.55H376.826V270.76ZM128.975 270.271H376.337V186.039H128.975V270.271Z" fill="#0C0C0C"/>
<path d="M116.492 211.687L131.791 204.854C132.127 204.704 132.491 204.625 132.859 204.623C133.228 204.622 133.592 204.697 133.93 204.843C134.267 204.99 134.571 205.206 134.821 205.476C135.07 205.747 135.261 206.066 135.381 206.414C135.582 207.064 135.534 207.765 135.247 208.382C134.96 208.998 134.455 209.486 133.828 209.751L130.548 211.219L142.979 211.347C144.362 211.337 146.064 212.209 145.973 213.761C145.977 214.36 145.778 214.943 145.408 215.414C145.038 215.886 144.519 216.218 143.936 216.357C143.94 216.37 143.942 216.383 143.942 216.397C143.941 216.407 143.939 216.417 143.936 216.426L146.068 216.411C146.462 216.409 146.853 216.494 147.21 216.662C147.567 216.829 147.883 217.074 148.134 217.378C148.385 217.683 148.564 218.04 148.66 218.422C148.755 218.805 148.764 219.205 148.686 219.591C148.55 220.198 148.21 220.74 147.722 221.126C147.235 221.512 146.629 221.719 146.007 221.712L145.1 221.718C145.088 221.745 145.072 221.769 145.051 221.789C145.665 221.927 146.21 222.279 146.588 222.782C146.966 223.284 147.154 223.905 147.116 224.533C147.056 225.219 146.738 225.857 146.228 226.32C145.717 226.782 145.051 227.035 144.362 227.028L142.109 227.044C142.141 227.066 142.167 227.095 142.185 227.129C142.203 227.163 142.214 227.201 142.215 227.24C142.213 227.286 142.197 227.331 142.171 227.369C142.683 227.643 143.092 228.079 143.333 228.608C143.574 229.137 143.634 229.731 143.505 230.298C143.357 230.891 143.013 231.416 142.529 231.789C142.046 232.162 141.45 232.36 140.84 232.353L121.828 232.488C119.169 232.507 116.564 231.732 114.348 230.261C112.133 228.79 110.407 226.691 109.391 224.233C108.516 222.113 108.502 219.736 109.351 217.606C110.201 215.476 111.847 213.761 113.941 212.826L116.492 211.687Z" fill="#E98862"/>
<g opacity="0.2">
<path opacity="0.2" d="M131.63 216.289C131.631 216.353 131.657 216.415 131.703 216.46C131.749 216.505 131.81 216.53 131.875 216.53L143.697 216.636C143.762 216.637 143.825 216.612 143.871 216.566C143.917 216.521 143.944 216.459 143.944 216.394C143.945 216.329 143.92 216.267 143.874 216.22C143.829 216.174 143.767 216.148 143.702 216.147L131.879 216.04C131.814 216.04 131.752 216.066 131.706 216.112C131.66 216.158 131.635 216.22 131.635 216.285L131.63 216.289Z" fill="#0C0C0C"/>
</g>
<g opacity="0.2">
<path opacity="0.2" d="M131.439 221.504C131.44 221.568 131.467 221.629 131.512 221.674C131.558 221.72 131.62 221.745 131.684 221.745L144.878 221.864C144.943 221.864 145.005 221.838 145.051 221.792C145.097 221.746 145.123 221.684 145.123 221.619C145.12 221.555 145.094 221.494 145.049 221.449C145.003 221.403 144.942 221.377 144.878 221.375L131.684 221.256C131.652 221.255 131.62 221.261 131.59 221.274C131.56 221.286 131.533 221.304 131.51 221.326C131.487 221.349 131.468 221.376 131.456 221.406C131.443 221.436 131.437 221.468 131.437 221.5L131.439 221.504Z" fill="#0C0C0C"/>
</g>
<g opacity="0.2">
<path opacity="0.2" d="M131.2 227.146C131.201 227.211 131.227 227.272 131.273 227.317C131.319 227.362 131.381 227.388 131.445 227.388L141.97 227.482C142.034 227.483 142.097 227.458 142.143 227.412C142.189 227.367 142.216 227.305 142.216 227.24C142.217 227.175 142.192 227.113 142.146 227.066C142.101 227.02 142.039 226.994 141.974 226.993L131.449 226.898C131.384 226.898 131.322 226.924 131.276 226.97C131.23 227.016 131.205 227.078 131.205 227.143L131.2 227.146Z" fill="#0C0C0C"/>
</g>
<path d="M120.871 238.928L36.0449 258.211C33.227 258.518 30.3763 258.168 27.7166 257.188C25.0568 256.207 22.6603 254.624 20.7152 252.562C18.77 250.501 17.3291 248.016 16.5054 245.304C15.6818 242.591 15.4978 239.725 15.968 236.93L25.6753 158.849C26.4826 154.051 29.1629 149.77 33.1267 146.948C37.0904 144.126 42.0129 142.994 46.8111 143.801C51.6094 144.609 55.8904 147.289 58.7125 151.253C61.5345 155.216 62.6664 160.139 61.8591 164.937L57.1845 220.824L116.119 207.487L120.871 238.928Z" fill="#367CFF"/>
<path d="M45.2582 223.02C45.1968 223.02 45.1378 222.996 45.093 222.954C45.0482 222.912 45.0208 222.855 45.0163 222.794C45.0118 222.732 45.0305 222.672 45.0687 222.623C45.1069 222.575 45.1618 222.543 45.2225 222.534L57.0427 220.01C57.0745 220.005 57.107 220.006 57.1384 220.014C57.1697 220.021 57.1991 220.035 57.225 220.054C57.2509 220.073 57.2727 220.097 57.2892 220.125C57.3056 220.153 57.3163 220.184 57.3206 220.215C57.3302 220.28 57.3139 220.345 57.2754 220.397C57.2368 220.449 57.1792 220.484 57.1152 220.493L45.2949 223.017C45.2828 223.019 45.2705 223.02 45.2582 223.02Z" fill="#0C0C0C"/>
<path d="M38.5896 258.563C38.5248 258.567 38.4609 258.546 38.412 258.503C38.3632 258.46 38.3333 258.399 38.3291 258.334C38.3249 258.269 38.3466 258.206 38.3895 258.157C38.4324 258.108 38.493 258.078 38.5578 258.074L120.338 238.812L115.704 207.844L57.1216 220.491C57.0837 220.496 57.0452 220.491 57.0092 220.479C56.9731 220.466 56.9404 220.446 56.9137 220.418C56.887 220.391 56.8671 220.357 56.8558 220.321C56.8444 220.284 56.8418 220.245 56.8481 220.208L60.1343 188.276C60.1392 188.244 60.1504 188.213 60.1673 188.186C60.1843 188.158 60.2065 188.135 60.2328 188.116C60.2591 188.097 60.2888 188.084 60.3203 188.077C60.3518 188.07 60.3843 188.069 60.4161 188.075C60.48 188.086 60.5371 188.122 60.5747 188.174C60.6123 188.227 60.6274 188.293 60.6166 188.357L57.3877 219.961L115.818 207.305C115.85 207.296 115.882 207.294 115.915 207.298C115.947 207.302 115.978 207.313 116.007 207.329C116.035 207.346 116.059 207.368 116.079 207.394C116.098 207.42 116.113 207.45 116.121 207.481L120.872 238.925C120.887 238.987 120.878 239.052 120.846 239.107C120.813 239.162 120.761 239.202 120.7 239.219L38.6214 258.561C38.6109 258.562 38.6003 258.563 38.5896 258.563Z" fill="#0C0C0C"/>
<path d="M384.222 226.364L368.922 219.531C368.586 219.38 368.223 219.302 367.854 219.3C367.486 219.298 367.122 219.373 366.784 219.52C366.447 219.667 366.143 219.883 365.893 220.153C365.644 220.423 365.453 220.743 365.334 221.091C365.133 221.741 365.18 222.442 365.467 223.059C365.754 223.675 366.259 224.163 366.886 224.428L370.167 225.896L357.734 226.024C356.352 226.014 354.649 226.886 354.741 228.437C354.737 229.037 354.936 229.62 355.306 230.091C355.676 230.563 356.195 230.895 356.778 231.034C356.774 231.047 356.772 231.06 356.772 231.073C356.773 231.083 356.775 231.093 356.778 231.103L354.646 231.088C354.252 231.085 353.862 231.171 353.504 231.338C353.147 231.505 352.831 231.75 352.58 232.055C352.329 232.359 352.15 232.716 352.054 233.099C351.958 233.482 351.949 233.881 352.027 234.268C352.164 234.875 352.504 235.417 352.992 235.803C353.479 236.189 354.085 236.396 354.707 236.389L355.614 236.395C355.626 236.421 355.643 236.445 355.663 236.466C355.049 236.604 354.504 236.956 354.126 237.458C353.748 237.961 353.561 238.582 353.598 239.21C353.659 239.896 353.976 240.534 354.487 240.996C354.997 241.459 355.663 241.712 356.352 241.705L358.606 241.721C358.574 241.743 358.548 241.772 358.529 241.806C358.511 241.84 358.501 241.878 358.5 241.917C358.502 241.963 358.517 242.008 358.544 242.045C358.031 242.32 357.623 242.755 357.382 243.285C357.141 243.814 357.08 244.408 357.209 244.975C357.358 245.567 357.701 246.093 358.185 246.466C358.669 246.839 359.264 247.037 359.875 247.03L378.887 247.165C381.546 247.184 384.151 246.408 386.367 244.937C388.582 243.466 390.308 241.367 391.323 238.908C392.199 236.789 392.213 234.411 391.363 232.281C390.514 230.151 388.867 228.436 386.773 227.501L384.222 226.364Z" fill="#E98862"/>
<g opacity="0.2">
<path opacity="0.2" d="M369.083 230.966C369.082 231.03 369.056 231.091 369.011 231.137C368.965 231.182 368.903 231.207 368.839 231.207L357.016 231.313C356.984 231.313 356.952 231.307 356.922 231.295C356.893 231.283 356.865 231.266 356.842 231.243C356.82 231.221 356.801 231.194 356.789 231.164C356.776 231.135 356.77 231.103 356.769 231.071C356.769 231.039 356.775 231.007 356.787 230.977C356.799 230.947 356.817 230.92 356.839 230.897C356.862 230.874 356.889 230.856 356.918 230.843C356.948 230.831 356.98 230.824 357.012 230.824L368.834 230.717C368.899 230.717 368.961 230.743 369.007 230.789C369.053 230.835 369.079 230.897 369.079 230.962L369.083 230.966Z" fill="#0C0C0C"/>
</g>
<g opacity="0.2">
<path opacity="0.2" d="M369.274 236.18C369.273 236.244 369.247 236.305 369.202 236.35C369.157 236.395 369.096 236.421 369.032 236.422L355.837 236.541C355.773 236.541 355.71 236.515 355.664 236.469C355.619 236.423 355.593 236.361 355.593 236.296C355.595 236.232 355.621 236.171 355.667 236.125C355.712 236.08 355.773 236.053 355.837 236.051L369.031 235.932C369.096 235.932 369.158 235.958 369.204 236.004C369.25 236.05 369.276 236.112 369.276 236.177L369.274 236.18Z" fill="#0C0C0C"/>
</g>
<g opacity="0.2">
<path opacity="0.2" d="M369.514 241.823C369.513 241.887 369.487 241.949 369.441 241.994C369.395 242.039 369.334 242.064 369.269 242.064L358.745 242.159C358.713 242.16 358.681 242.154 358.651 242.141C358.621 242.129 358.594 242.112 358.571 242.089C358.548 242.067 358.53 242.04 358.517 242.01C358.505 241.981 358.498 241.949 358.498 241.917C358.498 241.885 358.504 241.853 358.516 241.823C358.528 241.793 358.545 241.766 358.568 241.743C358.59 241.72 358.617 241.702 358.647 241.689C358.676 241.677 358.708 241.67 358.74 241.67L369.265 241.575C369.33 241.575 369.392 241.601 369.438 241.647C369.484 241.693 369.51 241.755 369.51 241.82L369.514 241.823Z" fill="#0C0C0C"/>
</g>
<path d="M384.735 253.605L464.669 258.211C467.487 258.518 470.337 258.168 472.997 257.188C475.657 256.207 478.053 254.624 479.998 252.563C481.944 250.501 483.384 248.016 484.208 245.304C485.032 242.592 485.216 239.725 484.746 236.93L475.04 158.847C474.64 156.471 473.777 154.197 472.498 152.155C471.22 150.113 469.551 148.343 467.589 146.945C465.626 145.548 463.408 144.551 461.06 144.011C458.712 143.471 456.28 143.399 453.904 143.799C451.528 144.199 449.255 145.062 447.213 146.341C445.171 147.619 443.4 149.288 442.003 151.25C440.606 153.213 439.609 155.432 439.069 157.78C438.529 160.128 438.457 162.559 438.856 164.935L443.531 224.246L385.086 222.161L384.735 253.605Z" fill="#367CFF"/>
<path d="M455.455 223.999C455.516 223.998 455.575 223.975 455.62 223.933C455.665 223.891 455.693 223.833 455.697 223.772C455.702 223.711 455.683 223.65 455.645 223.602C455.607 223.554 455.552 223.522 455.491 223.512L443.671 223.435C443.639 223.429 443.607 223.431 443.575 223.438C443.544 223.446 443.514 223.459 443.488 223.479C443.462 223.498 443.441 223.522 443.424 223.55C443.408 223.577 443.397 223.608 443.393 223.64C443.383 223.704 443.399 223.77 443.438 223.822C443.477 223.874 443.534 223.908 443.599 223.918L455.419 223.996C455.431 223.998 455.443 223.999 455.455 223.999Z" fill="#0C0C0C"/>
<path d="M462.125 258.563C462.19 258.567 462.253 258.545 462.302 258.503C462.351 258.46 462.381 258.399 462.385 258.334C462.389 258.269 462.367 258.205 462.324 258.157C462.281 258.108 462.221 258.078 462.156 258.074L385.267 253.491L385.497 222.523L443.591 223.917C443.629 223.922 443.667 223.918 443.703 223.906C443.739 223.893 443.772 223.872 443.799 223.845C443.825 223.817 443.845 223.784 443.857 223.747C443.868 223.711 443.871 223.672 443.864 223.634L440.579 188.278C440.574 188.246 440.562 188.215 440.545 188.188C440.528 188.16 440.506 188.137 440.48 188.118C440.454 188.099 440.424 188.086 440.393 188.079C440.361 188.072 440.328 188.071 440.297 188.077C440.265 188.082 440.235 188.094 440.207 188.111C440.18 188.128 440.157 188.15 440.138 188.176C440.119 188.202 440.106 188.232 440.099 188.263C440.091 188.295 440.09 188.327 440.096 188.359L443.327 223.388L385.386 221.984C385.354 221.975 385.322 221.973 385.289 221.977C385.257 221.981 385.226 221.992 385.197 222.008C385.169 222.025 385.145 222.047 385.125 222.073C385.106 222.099 385.092 222.128 385.084 222.16L384.734 253.604C384.719 253.666 384.729 253.731 384.761 253.786C384.793 253.841 384.846 253.881 384.907 253.898L462.091 258.558C462.102 258.561 462.113 258.562 462.125 258.563Z" fill="#0C0C0C"/>
<path d="M187.491 241.227H180.994L177.349 227.092C177.214 226.589 176.984 225.549 176.66 223.972C176.335 222.396 176.148 221.337 176.098 220.797C176.025 221.46 175.84 222.524 175.546 223.99C175.251 225.457 175.024 226.503 174.865 227.129L171.239 241.227H164.761L157.895 214.32H163.509L166.95 229.007C167.552 231.719 167.987 234.069 168.257 236.057C168.33 235.357 168.499 234.274 168.763 232.808C169.028 231.342 169.276 230.204 169.509 229.394L173.429 214.32H178.822L182.742 229.394C182.914 230.069 183.128 231.1 183.386 232.486C183.644 233.872 183.84 235.062 183.974 236.057C184.096 235.1 184.292 233.907 184.561 232.477C184.829 231.047 185.074 229.891 185.294 229.008L188.719 214.32H194.333L187.491 241.227Z" fill="#0CBC8B"/>
<path d="M213.221 241.227H197.724V214.32H213.221V218.995H203.43V224.903H212.541V229.576H203.43V236.515H213.221V241.227Z" fill="#0CBC8B"/>
<path d="M218.835 241.227V214.32H224.541V236.517H235.455V241.229L218.835 241.227Z" fill="#0CBC8B"/>
<path d="M251.561 218.68C250.593 218.636 249.63 218.834 248.759 219.257C247.887 219.68 247.135 220.313 246.571 221.1C245.393 222.714 244.804 224.963 244.804 227.846C244.804 233.848 247.056 236.848 251.559 236.848C253.91 236.757 256.23 236.278 258.424 235.429V240.215C256.074 241.162 253.559 241.631 251.025 241.595C247.111 241.595 244.117 240.408 242.043 238.034C239.969 235.659 238.932 232.251 238.933 227.809C238.877 225.274 239.399 222.759 240.46 220.456C241.402 218.436 242.932 216.749 244.85 215.615C246.893 214.458 249.211 213.876 251.559 213.931C254.293 213.96 256.986 214.609 259.435 215.827L257.594 220.465C256.605 219.994 255.591 219.576 254.557 219.214C253.596 218.868 252.583 218.688 251.561 218.68Z" fill="#0CBC8B"/>
<path d="M288.573 227.736C288.573 232.19 287.469 235.613 285.26 238.006C283.051 240.399 279.886 241.595 275.763 241.595C271.64 241.595 268.475 240.399 266.266 238.006C264.057 235.614 262.953 232.178 262.953 227.699C262.953 223.22 264.06 219.8 266.275 217.438C268.49 215.076 271.665 213.895 275.8 213.895C279.934 213.895 283.097 215.085 285.288 217.466C287.479 219.847 288.574 223.27 288.573 227.736ZM268.935 227.736C268.935 230.742 269.505 233.006 270.647 234.527C271.788 236.049 273.494 236.81 275.763 236.81C280.316 236.81 282.592 233.785 282.592 227.736C282.592 221.674 280.328 218.644 275.8 218.644C273.53 218.644 271.818 219.407 270.663 220.935C269.508 222.463 268.932 224.73 268.935 227.736Z" fill="#0CBC8B"/>
<path d="M305.543 241.227L299.065 220.116H298.899C299.132 224.411 299.249 227.276 299.249 228.711V241.227H294.15V214.32H301.918L308.286 234.897H308.396L315.151 214.32H322.918V241.227H317.599V228.49C317.599 227.889 317.608 227.196 317.626 226.411C317.644 225.625 317.727 223.539 317.875 220.153H317.709L310.771 241.227H305.543Z" fill="#0CBC8B"/>
<path d="M345.189 241.227H329.69V214.32H345.188V218.995H335.397V224.903H344.508V229.576H335.397V236.515H345.189V241.227Z" fill="#0CBC8B"/>
</g>
<defs>
<clipPath id="clip0_403_3047">
<rect width="485" height="270.436" fill="white" transform="translate(0 0.323608)"/>
</clipPath>
</defs>
</svg>
